<?xml version="1.0" encoding="UTF-8"?>
<svg version="1.1" viewBox="0 0 1600 1104" width="1280" height="1280" xmlns="http://www.w3.org/2000/svg">
<path transform="translate(0)" d="m0 0h1600v1104h-1600v-1104z" fill="#000102"/>
<path transform="translate(517,308)" d="m0 0c33.7-0.05 67.4-0.08 101-0.1 3.98 0 7.96-0.01 11.9-0.01h2.4c12.8-0.01 25.6-0.03 38.5-0.04 13.2-0.02 26.3-0.03 39.5-0.04 8.12 0 16.2-0.01 24.4-0.03 6.22-0.01 12.4-0.01 18.7-0.01 2.56 0 5.11 0 7.67-0.01 3.48-0.01 6.96-0.01 10.4 0 1.02-0.01 2.04-0.01 3.09-0.02 0.93 0.01 1.86 0.01 2.82 0.01h2.43c2.45 0.28 4.08 1.03 6.2 2.25-1.07 0.95-1.07 0.95-2.16 1.91-3.62 3.64-5.88 8-8.34 12.5-0.52 0.91-1.03 1.83-1.56 2.78-1.66 2.94-3.3 5.89-4.94 8.84-6.45 11.5-12.9 23-19.6 34.4-0.5 0.85-1 1.71-1.51 2.59-0.47 0.78-0.93 1.56-1.41 2.37-0.4 0.68-0.81 1.37-1.22 2.08-1.24 1.58-1.24 1.58-4.24 2.58-1.36 0.1-2.72 0.15-4.08 0.16-1.24 0.01-1.24 0.01-2.51 0.03-0.91 0-1.81 0.01-2.75 0.02-0.95 0.01-1.91 0.02-2.89 0.03-3.17 0.03-6.34 0.05-9.5 0.08-2.19 0.02-4.39 0.04-6.58 0.06-5.77 0.05-11.6 0.1-17.3 0.15-5.89 0.05-11.8 0.11-17.7 0.16-11.6 0.11-23.1 0.21-34.7 0.31 0.78 4.59 2.54 7.91 5 11.8 0.83 1.34 1.65 2.69 2.47 4.03 0.64 1.03 0.64 1.03 1.28 2.09 1.97 3.27 3.83 6.6 5.69 9.95 2.99 5.37 6.05 10.7 9.18 16 5.01 8.45 9.92 17 14.8 25.5 2.89 5.02 5.78 10 8.74 15 0.47 0.79 0.94 1.58 1.43 2.39 0.86 1.45 1.73 2.89 2.6 4.33 2.79 4.68 2.79 4.68 2.79 6.9 24.2 1.02 48.2 0.99 72.4 0.42 5.77-0.13 11.5-0.25 17.3-0.34 0.83-0.01 1.66-0.03 2.52-0.04 4.22-0.07 8.45-0.14 12.7-0.2 8.64-0.14 17.3-0.32 25.9-0.6 7.67-0.24 15.3-0.4 23-0.46 4.02-0.03 8.04-0.11 12.1-0.29 24.1-1.04 24.1-1.04 30.8 4.85 4.59 5.73 7.56 12 10.2 18.8 1.47 3.73 3.33 7.1 5.31 10.6 0.49 0.94 0.97 1.89 1.48 2.86 1.26 2.39 1.26 2.39 2.84 4.38 1.75 2.36 2.92 4.79 4.18 7.45 3.7 7.56 8.05 14.8 12.8 21.7 1.15 1.78 1.15 1.78 2.53 4.84-1.06 4.15-2.76 7.61-4.94 11.3-0.58 0.99-1.16 1.97-1.76 2.98-0.61 1.03-1.23 2.06-1.86 3.13-1.28 2.16-2.55 4.32-3.83 6.48-0.62 1.05-1.24 2.1-1.88 3.18-2.25 3.84-4.44 7.7-6.61 11.6-0.35 0.64-0.71 1.28-1.08 1.94-0.68 1.23-1.37 2.46-2.06 3.69-5.03 8.99-10.2 17.9-15.5 26.8-5.92 10-11.7 20.1-17.4 30.2-6.04 10.7-12.2 21.4-18.5 32-4.33 7.29-8.5 14.6-12.6 22-5.81 10.4-11.9 20.7-18 30.9-4.82 8.09-9.54 16.2-14.1 24.5-2.35 4.22-4.8 8.38-7.25 12.5-2.21 3.86-4.25 7.8-6.27 11.8-1.36 2.08-1.36 2.08-4.36 3.08-4.21-3.78-6.46-7.4-8.81-12.5-3.07-6.41-6.45-12.4-10.2-18.4-5.86-9.3-11.1-19-16.4-28.6-3.84-7-7.65-13.9-12.2-20.5-2.05-3.11-3.75-6.39-5.51-9.68-2.36-4.33-4.85-8.59-7.33-12.8-3.52-6.05-6.98-12.1-10.3-18.3-2.15-3.98-4.36-7.91-6.8-11.7-0.84-1.32-0.84-1.32-1.7-2.68-0.8-1.23-0.8-1.23-1.62-2.48-1.26-2.73-0.92-3.55-0.07-6.33 1.52 0.03 1.52 0.03 3.07 0.07 9.57 0.2 19.1 0.35 28.7 0.45 4.92 0.05 9.84 0.12 14.8 0.23 4.75 0.11 9.49 0.17 14.2 0.2 1.81 0.02 3.62 0.05 5.43 0.11 9.77 0.67 9.77 0.67 18.2-3.19 1.59-2.6 2.63-4.99 3.6-7.87 0.73-1.55 1.48-3.09 2.25-4.62 0.39-0.82 0.79-1.63 1.2-2.46 2.8-5.26 6.05-10.2 9.25-15.3 4-5.95 4-5.95 6.3-12.6h2c0.26-0.87 0.52-1.74 0.78-2.64 1.24-3.41 2.75-6.06 4.72-9.11 3.4-5.36 6.56-10.8 9.62-16.4 0.4-0.72 0.8-1.44 1.2-2.17 2.29-4.16 4.56-8.33 6.84-12.5 0.53-0.98 1.06-1.96 1.62-2.97 0.4-0.75 0.8-1.49 1.22-2.25h-2.97c-23.8-0.04-47.7-0.1-71.5-0.18-11.5-0.04-23.1-0.08-34.6-0.09-10-0.01-20.1-0.04-30.2-0.08-5.32-0.03-10.6-0.04-16-0.04-5.01 0-10-0.02-15-0.05-1.84-0.01-3.68-0.01-5.52-0.01-2.51 0.01-5.02-0.01-7.53-0.03-0.73 0.01-1.46 0.01-2.21 0.02-3.42-0.06-5.2-0.28-7.91-2.44-1.62-2.11-3.01-4.2-4.31-6.52-0.48-0.85-0.96-1.71-1.46-2.59-0.51-0.9-1.01-1.81-1.53-2.74s-1.05-1.87-1.59-2.83c-1.58-2.8-3.15-5.61-4.72-8.42-1.25-2.23-2.5-4.46-3.75-6.68-0.74-1.33-1.49-2.66-2.23-3.98-2.46-4.38-5.02-8.69-7.63-13-2-3.39-3.86-6.85-5.7-10.3-1.46-2.62-2.97-5.18-4.52-7.74-3.06-5.07-6-10.2-8.92-15.4-3.73-6.55-7.48-13.1-11.3-19.6-7.48-12.7-14.8-25.4-22.1-38.2-1.73-3.03-3.49-6.04-5.26-9.06-2.76-4.71-5.45-9.47-8.12-14.2-3.38-6.03-6.84-12-10.4-17.9-6.87-11.3-13.4-22.9-19.8-34.4-1.05-1.86-2.1-3.73-3.15-5.59-0.5-0.89-0.5-0.89-1-1.79-1.65-2.91-3.34-5.78-5.14-8.6-0.7-1.09-1.39-2.18-2.11-3.3-0.71-1.09-1.41-2.19-2.14-3.32-1.61-2.99-1.61-2.99-1.61-6.99z" fill="#FCFDFF"/>
<path transform="translate(906 308)" d="m0 0c0.71-0 1.41-0.01 2.14-0.01 2.38-0.01 4.75 0 7.13 0.01 1.7-0.01 3.4-0.01 5.1-0.02 4.63 0 9.25 0 13.9 0.01 4.83 0 9.67 0 14.5-0.01 8.12 0 16.2 0 24.4 0.01 9.4 0.01 18.8 0.01 28.2 0 8.05-0.01 16.1-0.01 24.2-0.01 4.81 0.01 9.63 0.01 14.4 0 4.53 0 9.05 0 13.6 0.01h5c2.26-0.01 4.53 0 6.8 0.01h3.85c3.06 0.25 3.06 0.25 6.06 2.25-0.36 0.53-0.73 1.05-1.1 1.59-3.35 4.9-6.3 9.88-9.09 15.1-2.22 4.06-4.54 8.06-6.87 12-4.23 7.26-8.38 14.6-12.5 21.9-4.13 7.34-8.33 14.6-12.6 21.9-4.13 6.98-8.09 14-12.1 21.1-3.02 5.37-6.1 10.7-9.31 15.9-6.23 10.2-12.1 20.7-17.4 31.4-2.3-0.18-2.3-0.18-5-1-1.71-2.17-1.71-2.17-3.23-5.04-0.57-1.04-1.14-2.09-1.73-3.17-0.59-1.13-1.18-2.25-1.79-3.41-1.24-2.3-2.49-4.6-3.74-6.9-0.6-1.11-1.2-2.23-1.82-3.38-2.11-3.87-4.33-7.65-6.63-11.4-0.35-0.59-0.71-1.17-1.08-1.78-0.99-1.63-1.98-3.27-2.98-4.91-4.48-7.54-8.8-15.2-13.1-22.8-1.69-3.28-1.69-3.28-3.93-6.17-2.83-0.12-5.63-0.18-8.47-0.2-0.88-0.01-1.77-0.02-2.69-0.03-2.94-0.03-5.89-0.06-8.84-0.08-2.04-0.02-4.08-0.04-6.12-0.07-5.38-0.05-10.8-0.1-16.1-0.15-5.48-0.05-11-0.1-16.4-0.16-10.8-0.11-21.5-0.21-32.3-0.31l-1-2c0.47-0.64 0.94-1.28 1.43-1.94 4.2-5.77 4.2-5.77 7.38-12.1 1.19-2.94 1.19-2.94 3.19-3.94 0.7-1.65 1.36-3.32 2-5 3.01-5.9 6.33-11.5 10-17 0.89-1.59 1.76-3.2 2.63-4.81 2.77-5.14 5.67-10.2 8.62-15.2 0.44-0.75 0.87-1.5 1.32-2.27 0.42-0.71 0.83-1.41 1.26-2.14 0.37-0.63 0.74-1.26 1.12-1.91 2.77-4.26 4.96-3.87 9.84-3.87z" fill="#FCFDFF"/>
</svg>
